HIERARCHY
ROOT SpineBase
{
  OFFSET 0.000000 0.000000 0.000000
  CHANNELS 6 Xposition Yposition Zposition Zrotation Xrotation Yrotation
  JOINT SpineMid
  {
    OFFSET -0.000000 30.762155 0.000000
    CHANNELS 3 Zrotation Xrotation Yrotation
    JOINT SpineShoulder
    {
      OFFSET -0.046063 22.842953 -0.829419
      CHANNELS 3 Zrotation Xrotation Yrotation
      JOINT Neck
      {
        OFFSET -0.038463 7.577153 -0.619230
        CHANNELS 3 Zrotation Xrotation Yrotation
        JOINT Head
        {
          OFFSET 2.471677 14.665100 -0.365812
          CHANNELS 3 Zrotation Xrotation Yrotation
          End Site
          {
            OFFSET 0 0 0
          }
        }
      }
      JOINT ShoulderLeft
      {
        OFFSET -15.800574 -2.587184 -5.970354
        CHANNELS 3 Zrotation Xrotation Yrotation
        JOINT ElbowLeft
        {
          OFFSET -4.971836 -23.852135 -1.417017
          CHANNELS 3 Zrotation Xrotation Yrotation
          JOINT WristLeft
          {
            OFFSET 2.783875 -21.796472 -5.369893
            CHANNELS 3 Zrotation Xrotation Yrotation
            JOINT HandLeft
            {
              OFFSET 2.238314 -6.697163 -1.063480
              CHANNELS 3 Zrotation Xrotation Yrotation
              JOINT HandTipLeft
              {
                OFFSET 1.654751 -6.202384 0.381466
                CHANNELS 3 Zrotation Xrotation Yrotation
                End Site
                {
                  OFFSET 0 0 0
                }
              }
              JOINT ThumbLeft
              {
                OFFSET 3.005180 2.193061 -0.366365
                CHANNELS 3 Zrotation Xrotation Yrotation
                End Site
                {
                  OFFSET 0 0 0
                }
              }
            }
          }
        }
      }
      JOINT ShoulderRight
      {
        OFFSET 16.915644 -4.713292 3.204590
        CHANNELS 3 Zrotation Xrotation Yrotation
        JOINT ElbowRight
        {
          OFFSET 3.292517 -26.919410 1.993880
          CHANNELS 3 Zrotation Xrotation Yrotation
          JOINT WristRight
          {
            OFFSET 0.275743 -23.668266 -9.008508
            CHANNELS 3 Zrotation Xrotation Yrotation
            JOINT HandRight
            {
              OFFSET -0.480538 -5.732992 -5.421712
              CHANNELS 3 Zrotation Xrotation Yrotation
              JOINT HandTipRight
              {
                OFFSET -0.004383 -6.651411 -5.685811
                CHANNELS 3 Zrotation Xrotation Yrotation
                End Site
                {
                  OFFSET 0 0 0
                }
              }
              JOINT ThumbRight
              {
                OFFSET 0.534494 0.665841 1.943349
                CHANNELS 3 Zrotation Xrotation Yrotation
                End Site
                {
                  OFFSET 0 0 0
                }
              }
            }
          }
        }
      }
    }
  }
  JOINT HipLeft
  {
    OFFSET -7.787517 0.988607 -4.683521
    CHANNELS 3 Zrotation Xrotation Yrotation
    JOINT KneeLeft
    {
      OFFSET -3.292790 -28.891076 2.337629
      CHANNELS 3 Zrotation Xrotation Yrotation
      JOINT AnkleLeft
      {
        OFFSET -4.576909 -27.876848 9.717032
        CHANNELS 3 Zrotation Xrotation Yrotation
        JOINT FootLeft
        {
          OFFSET 2.799433 -4.740055 -13.150641
          CHANNELS 3 Zrotation Xrotation Yrotation
          End Site
          {
            OFFSET 0 0 0
          }
        }
      }
    }
  }
  JOINT HipRight
  {
    OFFSET 6.975616 0.866643 -2.247727
    CHANNELS 3 Zrotation Xrotation Yrotation
    JOINT KneeRight
    {
      OFFSET -3.050974 -31.586395 2.077404
      CHANNELS 3 Zrotation Xrotation Yrotation
      JOINT AnkleRight
      {
        OFFSET -8.576665 -31.135609 10.993247
        CHANNELS 3 Zrotation Xrotation Yrotation
        JOINT FootRight
        {
          OFFSET -11.579568 -2.707136 -4.136092
          CHANNELS 3 Zrotation Xrotation Yrotation
          End Site
          {
            OFFSET 0 0 0
          }
        }
      }
    }
  }
}
MOTION
Frames: 11
Frame Time: 0.033333
49.679527 71.022389 347.461762 -2.090003 -8.628849 -30.546057 -0.416583 -0.072262 30.313891 0.295054 0.070164 -0.133404 -17.475016 4.430424 2.387939 0.000000 0.000000 0.000000 35.683682 55.144941 -32.156332 10.986859 -11.636124 17.145055 -3.017114 8.681822 9.434418 1.240899 28.040813 4.081365 0.000000 0.000000 0.000000 0.000000 0.000000 0.000000 47.498723 -31.152195 8.074007 53.745496 64.321696 -88.195315 -14.583886 27.675915 -22.307868 7.120887 -15.490043 9.847961 0.000000 0.000000 0.000000 0.000000 0.000000 0.000000 -19.072677 31.919576 33.096775 -1.298446 -24.551929 0.854005 8.086019 -9.656232 -17.988545 0.000000 0.000000 0.000000 8.473546 8.075579 30.162305 -10.005866 4.897474 -0.602681 8.515459 3.997028 -32.083090 0.000000 0.000000 0.000000
50.517372 70.481722 346.696732 -2.358678 -10.016890 -27.909152 -0.356139 -0.212995 27.617520 0.260708 0.067570 -0.154316 -16.897089 7.051095 2.860967 0.000000 0.000000 0.000000 51.880338 57.648304 -45.771618 5.801193 -12.616894 17.280102 -1.694882 7.700587 10.312942 -0.054676 25.035680 3.482044 0.000000 0.000000 0.000000 0.000000 0.000000 0.000000 57.625645 -39.396731 13.577021 90.842254 61.024644 -136.420720 -27.698738 30.381688 -19.014564 15.446450 -11.257891 9.539851 0.000000 0.000000 0.000000 0.000000 0.000000 0.000000 -18.580956 36.267193 30.890802 -1.967833 -21.762018 0.232869 7.891532 -14.742611 -16.436531 0.000000 0.000000 0.000000 8.850035 7.152933 27.546551 -12.683973 6.568494 -1.257284 11.014633 6.794864 -39.886297 0.000000 0.000000 0.000000
50.979868 69.889940 345.452047 -3.225440 -11.194996 -24.578617 -0.261301 -0.063063 24.141817 0.249679 0.115272 -0.189495 -14.090694 8.964022 2.881457 0.000000 0.000000 0.000000 63.629300 57.610842 -55.134775 1.510003 -11.292122 16.362581 -1.076265 8.591776 11.380972 -1.359796 24.566182 2.547428 0.000000 0.000000 0.000000 0.000000 0.000000 0.000000 68.228170 -47.425216 21.234546 112.051693 46.196995 -168.827961 -39.565983 25.532024 -16.898905 14.506267 -10.821811 7.799142 0.000000 0.000000 0.000000 0.000000 0.000000 0.000000 -15.052567 39.841108 26.941365 -2.500913 -17.277112 -0.263770 7.788233 -18.941504 -15.607121 0.000000 0.000000 0.000000 11.235976 4.890168 24.266867 -16.027191 10.310975 -1.582216 15.733317 8.327059 -51.145883 0.000000 0.000000 0.000000
51.494568 69.278984 343.865666 -4.108051 -12.480727 -22.775892 -0.126725 -0.078159 22.164141 0.158715 0.224158 -0.222190 -11.339443 11.816991 2.828046 0.000000 0.000000 0.000000 72.894690 57.602469 -62.925004 -1.195653 -11.064247 15.916641 -2.329750 10.400309 11.894863 -1.418318 22.551254 2.156113 0.000000 0.000000 0.000000 0.000000 0.000000 0.000000 77.506247 -53.261277 28.619631 120.611100 26.849394 171.746731 -46.880338 11.982186 -19.033246 12.159126 -2.432361 5.723774 0.000000 0.000000 0.000000 0.000000 0.000000 0.000000 -12.041008 41.905865 24.369004 -2.747276 -12.448884 -0.730357 5.998148 -24.915153 -12.681042 0.000000 0.000000 0.000000 12.956408 3.380595 22.411622 -19.328581 12.736720 -1.472676 19.527486 9.653883 -56.127460 0.000000 0.000000 0.000000
51.456817 68.733842 341.597376 -5.506886 -13.126755 -22.851627 0.097532 0.050822 21.986211 0.181587 0.133820 -0.278031 -8.619362 12.998275 2.623154 0.000000 0.000000 0.000000 80.852490 56.569007 -68.847607 -3.773081 -10.776771 15.239809 -4.327526 11.960548 12.153320 -1.070801 22.431857 1.850850 0.000000 0.000000 0.000000 0.000000 0.000000 0.000000 86.009442 -58.048635 36.364978 125.749099 6.333844 156.807006 -55.466784 0.489220 -24.256098 15.116372 -3.074044 4.161844 0.000000 0.000000 0.000000 0.000000 0.000000 0.000000 -8.578595 41.935072 23.381569 -2.869724 -6.617373 -1.178620 4.129729 -30.618867 -11.178069 0.000000 0.000000 0.000000 16.114782 1.882246 22.302665 -21.932852 14.866847 -0.752912 23.161767 9.363979 -60.712043 0.000000 0.000000 0.000000
51.132510 67.962760 338.878966 -6.799568 -13.533810 -21.004513 0.141085 -0.014870 19.912450 0.225139 0.164430 -0.334840 -6.513232 13.652621 2.475920 0.000000 0.000000 0.000000 88.001171 55.760368 -74.317869 -6.136970 -11.749292 14.834325 -3.969916 13.013332 12.619642 -0.254004 21.958203 2.065286 0.000000 0.000000 0.000000 0.000000 0.000000 0.000000 92.479493 -60.593647 41.856858 130.175668 -11.860836 144.488204 -70.517608 -11.231283 -36.794296 25.061343 4.719558 3.038641 0.000000 0.000000 0.000000 0.000000 0.000000 0.000000 -2.965786 42.000584 19.564199 -3.837421 -2.646319 -1.863533 2.943413 -34.378835 -10.448679 0.000000 0.000000 0.000000 18.720716 -1.026080 20.601568 -22.936947 16.604940 0.273604 24.230262 10.954185 -64.421938 0.000000 0.000000 0.000000
50.550592 67.212669 335.738268 -8.243660 -13.798636 -19.849788 0.172241 0.040283 18.512187 0.294721 0.228474 -0.393931 -4.790674 13.754202 2.373738 0.000000 0.000000 0.000000 92.733066 55.568045 -77.847846 -5.509803 -11.707374 15.572340 -6.499707 12.064741 12.225550 1.688527 21.846466 3.109639 0.000000 0.000000 0.000000 0.000000 0.000000 0.000000 97.650167 -61.620316 45.520858 133.843920 -26.883934 134.395409 -72.943031 -22.053678 -48.349315 21.594163 4.908325 0.822192 0.000000 0.000000 0.000000 0.000000 0.000000 0.000000 2.991330 41.506597 16.283008 -5.710954 0.106186 -2.720014 2.455297 -36.551009 -10.747291 0.000000 0.000000 0.000000 21.187070 -3.964558 19.622292 -22.276832 18.235973 1.293051 23.994784 12.006455 -66.980887 0.000000 0.000000 0.000000
49.767797 66.369107 332.253381 -9.691109 -13.914010 -20.361191 0.192127 0.160689 18.788828 0.338593 0.339966 -0.445526 -3.405367 13.073759 2.338226 0.000000 0.000000 0.000000 96.315682 55.186340 -80.001336 -4.688737 -11.416029 16.249322 -11.992593 13.219971 11.318809 3.884216 15.149205 4.684839 0.000000 0.000000 0.000000 0.000000 0.000000 0.000000 93.751731 -61.981984 41.935347 136.268321 -34.305903 132.070335 -65.871373 -26.678937 -49.200659 14.671999 -2.734431 -1.925108 0.000000 0.000000 0.000000 0.000000 0.000000 0.000000 8.158968 40.484643 15.009710 -8.086956 2.161846 -3.492445 2.138240 -37.224359 -11.762115 0.000000 0.000000 0.000000 23.545507 -5.738899 20.109500 -20.354159 18.989209 2.035143 22.403006 13.226486 -68.908677 0.000000 0.000000 0.000000
49.056124 65.786537 328.787961 -10.823407 -13.911196 -22.573758 0.258949 0.213465 20.816639 0.405340 0.353947 -0.490582 -2.913688 11.582981 2.482456 0.000000 0.000000 0.000000 98.414855 53.858596 -80.179647 -5.088098 -10.499759 15.831003 -21.818621 14.419458 9.489755 9.867112 7.232664 7.986310 0.000000 0.000000 0.000000 0.000000 0.000000 0.000000 99.095844 -65.861276 48.824035 145.773608 -45.838890 127.527459 -52.736013 -35.581713 -42.753991 15.965571 -9.126976 -5.340067 0.000000 0.000000 0.000000 0.000000 0.000000 0.000000 11.784710 39.113748 16.073346 -11.115126 3.821777 -4.316369 3.465931 -34.266348 -12.499797 0.000000 0.000000 0.000000 24.879326 -5.665826 21.988940 -16.589360 18.109639 2.300049 19.949573 13.951505 -69.948472 0.000000 0.000000 0.000000
48.473443 65.498713 325.597961 -11.735506 -14.022744 -27.121108 0.278469 0.339917 25.208575 0.471371 0.415508 -0.522090 -2.326158 9.550051 2.598216 0.000000 0.000000 0.000000 98.792103 53.038090 -79.126840 -4.499147 -9.237375 15.659395 -55.347964 14.563139 1.895522 40.088658 6.746941 23.093494 0.000000 0.000000 0.000000 0.000000 0.000000 0.000000 105.136922 -65.001584 52.307901 156.053778 -52.063420 123.498292 -26.886621 -41.346537 -23.114283 13.132538 -19.194194 -9.781554 0.000000 0.000000 0.000000 0.000000 0.000000 0.000000 12.754762 38.396518 20.328126 -14.060681 4.497719 -4.838849 3.743145 -34.489765 -14.135166 0.000000 0.000000 0.000000 24.900464 -3.341388 25.722590 -12.622312 15.941975 2.323154 17.699826 15.213361 -71.900317 0.000000 0.000000 0.000000
48.117888 65.577575 322.587612 -12.376892 -14.202010 -30.549982 0.254967 0.447684 28.520083 0.513461 0.457592 -0.544760 -1.526983 7.388348 2.673731 0.000000 0.000000 0.000000 97.749843 52.432420 -76.963351 -4.165493 -8.151922 15.167628 -155.207570 3.962736 -87.807630 -161.217835 38.837631 -84.022920 0.000000 0.000000 0.000000 0.000000 0.000000 0.000000 113.405412 -58.718114 52.162401 161.356465 -54.014885 114.643754 -2.515947 -34.989673 -0.327153 -6.560264 -30.372752 -22.746711 0.000000 0.000000 0.000000 0.000000 0.000000 0.000000 14.044670 38.189489 23.224123 -16.560100 4.923130 -5.094025 3.796666 -33.633668 -14.913954 0.000000 0.000000 0.000000 24.905589 -3.564401 29.009369 -9.274293 16.618071 2.196242 16.682876 15.491767 -73.722570 0.000000 0.000000 0.000000
